# xmcd CD database file
#
# Track frame offsets:
#	150
#	15040
#	29956
#	46851
#	59880
#	81040
#	93207
#	106579
#	125221
#	142196
#	157410
#	175837
#	191570
#
# Disc length: 2821 seconds
#
# Revision: 2
# Processed by: cddbd v1.4b41PL1 Copyright (c) Steve Scherf et al.
# Submitted via: Feurio! 1.60 - http://www.feurio.com
#
DISCID=8f0b030d,b40b030d
DTITLE=Brad Paisley - Who Needs Pictures
DYEAR=1900
DGENRE=
TTITLE0=Long Sermon
TTITLE1=Me Neither
TTITLE2=Who Needs Pictures
TTITLE3=Don't Breathe
TTITLE4=He Didn't Have To Be
TTITLE5=It Never Woulda Worked Out Anyway
TTITLE6=Holdin' On To You
TTITLE7=I've Been Better
TTITLE8=We Danced
TTITLE9=Sleepin' On The Foldout
TTITLE10=Cloud Of Dust
TTITLE11=The Nervous Breakdown
TTITLE12=In The Garden
EXTD=
EXTT0=
EXTT1=
EXTT2=
EXTT3=
EXTT4=
EXTT5=
EXTT6=
EXTT7=
EXTT8=
EXTT9=
EXTT10=
EXTT11=
EXTT12=
PLAYORDER=
